{
.appVersion = "1192";
DisplayStrings = (
"2"
);
copyright = "Copyright (c) 2019 Source Foundry Authors / Copyright (c) 2003 by Bitstream, Inc. All Rights Reserved.";
customParameters = (
{
name = Axes;
value = (
{
Name = Weight;
Tag = wght;
},
{
Name = "Optical size";
Tag = opsz;
},
{
Name = Width;
Tag = wdth;
}
);
},
{
name = licenseURL;
value = "https://github.com/source-foundry/Hack/blob/master/LICENSE.md";
},
{
name = license;

glyphs = (
{
glyphname = A;
lastChange = "2019-02-12 04:45:49 +0000";
layers = (
{
layerId = "A38A55E9-0FA0-41CB-858E-AFEB657F7EAC";
paths = (
{
closed = 1;
nodes = (
"119 0 LINE {name = ab02;}",
"171 190 LINE",
"427 190 LINE {name = dv01;}",
"480 0 LINE",
"583 0 LINE {name = ab01;}",
"359 730 LINE",
"240 730 LINE {name = hr00;}",
"16 0 LINE"
);
},
{
closed = 1;
nodes = (
"299 643 LINE",
"403 269 LINE {name = dv02;}",
"196 269 LINE"
);
}
);
width = 600;
},
{
layerId = "61F2BD45-B671-4C55-AD7E-9EE71CCEAAE6";
paths = (
{
closed = 1;
nodes = (
"158 0 LINE {name = ab02;}",
"202 181 LINE",
"396 181 LINE {name = dv01;}",
"441 0 LINE",
"586 0 LINE {name = ab01;}",
"388 730 LINE",
"211 730 LINE {name = hr00;}",
"13 0 LINE"
);
},
{
closed = 1;
nodes = (
"299 599 LINE",
"368 299 LINE {name = dv02;}",
"231 299 LINE"
);
}
);
width = 600;
}
);
unicode = 0041;
},
{
glyphname = B;
lastChange = "2019-02-12 05:42:12 +0000";
layers = (
{
layerId = "A38A55E9-0FA0-41CB-858E-AFEB657F7EAC";
paths = (
{
closed = 1;
nodes = (
"296 0 LINE SMOOTH {name = ab01;}",
"456 0 OFFCURVE",
"555 53 OFFCURVE",
"555 200 CURVE SMOOTH {name = sh01;}",
"555 299 OFFCURVE",
"498 376 OFFCURVE",
"402 390 CURVE {name = ih02;}",
"483 401 OFFCURVE",
"530 458 OFFCURVE",
"530 550 CURVE SMOOTH {name = dh04;}",
"530 676 OFFCURVE",
"438 730 OFFCURVE",
"296 730 CURVE SMOOTH",
"81 730 LINE {name = dh01;}",
"81 0 LINE"
);
},
{
closed = 1;
nodes = (
"180 348 LINE {name = sh02;}",
"296 348 LINE SMOOTH {name = dv01;}",
"404 348 OFFCURVE",
"456 310 OFFCURVE",
"456 207 CURVE SMOOTH {name = ih01;}",
"456 113 OFFCURVE",
"398 81 OFFCURVE",
"296 81 CURVE SMOOTH {name = sv02;}",
"180 81 LINE"
);
},
{
closed = 1;
nodes = (
"180 649 LINE {name = dh02;}",
"296 649 LINE SMOOTH {name = sv01;}",
"385 649 OFFCURVE",
"430 623 OFFCURVE",
"430 542 CURVE SMOOTH {name = dh03;}",
"430 457 OFFCURVE",
"384 428 OFFCURVE",
"296 428 CURVE SMOOTH {name = hr01;}",
"180 428 LINE {name = hr02;}"
);
}
);
width = 600;
},
{
layerId = "61F2BD45-B671-4C55-AD7E-9EE71CCEAAE6";
paths = (
{
closed = 1;
nodes = (
"296 0 LINE SMOOTH {name = ab01;}",
"487 0 OFFCURVE",
"566 65 OFFCURVE",
"566 205 CURVE SMOOTH {name = sh01;}",
"566 319 OFFCURVE",
"510 380 OFFCURVE",
"398 390 CURVE {name = ih01;}",
"492 400 OFFCURVE",
"540 456 OFFCURVE",
"540 550 CURVE SMOOTH {name = dh04;}",
"540 682 OFFCURVE",
"446 730 OFFCURVE",
"296 730 CURVE SMOOTH",
"61 730 LINE {name = dh01;}",
"61 0 LINE"
);
},
{
closed = 1;
nodes = (
"200 331 LINE {name = sh02;}",
"296 331 LINE SMOOTH {name = dv01;}",
"384 331 OFFCURVE",
"424 300 OFFCURVE",
"424 221 CURVE SMOOTH {name = ih02;}",
"424 143 OFFCURVE",
"386 115 OFFCURVE",
"296 115 CURVE SMOOTH {name = sv02;}",
"200 115 LINE"
);
},
{
closed = 1;
nodes = (
"200 615 LINE {name = dh02;}",
"296 615 LINE SMOOTH {name = sv01;}",
"365 615 OFFCURVE",
"402 593 OFFCURVE",
"402 530 CURVE SMOOTH {name = dh03;}",
"402 467 OFFCURVE",
"365 446 OFFCURVE",
"296 446 CURVE SMOOTH {name = hr01;}",
"200 446 LINE {name = hr02;}"
);
}
);
width = 600;
}
);
unicode = 0042;
},
{
glyphname = C;
lastChange = "2019-02-12 05:55:15 +0000";
layers = (
{
layerId = "A38A55E9-0FA0-41CB-858E-AFEB657F7EAC";
paths = (
{
closed = 1;
nodes = (
"423 -14 OFFCURVE",
"471 -1 OFFCURVE",
"524 26 CURVE",
"524 127 LINE",
"476 87 OFFCURVE",
"419 66 OFFCURVE",
"365 66 CURVE SMOOTH {name = dv01;}",
"247 66 OFFCURVE",
"171 165 OFFCURVE",
"171 364 CURVE SMOOTH {name = dh02;}",
"171 533 OFFCURVE",
"233 662 OFFCURVE",
"365 662 CURVE SMOOTH {name = sv01;}",
"422 662 OFFCURVE",
"479 638 OFFCURVE",
"524 601 CURVE",
"524 703 LINE",
"472 732 OFFCURVE",
"428 743 OFFCURVE",
"365 743 CURVE SMOOTH {name = at01;}",
"174 743 OFFCURVE",
"68 601 OFFCURVE",
"68 363 CURVE SMOOTH {name = dh01;}",
"68 94 OFFCURVE",
"174 -14 OFFCURVE",
"365 -14 CURVE SMOOTH {name = hr00;}"
);
}
);
width = 600;
},
{
layerId = "61F2BD45-B671-4C55-AD7E-9EE71CCEAAE6";
paths = (
{
closed = 1;
nodes = (
"423 -14 OFFCURVE",
"479 -2 OFFCURVE",
"522 21 CURVE",
"522 181 LINE",
"478 140 OFFCURVE",
"433 115 OFFCURVE",
"379 115 CURVE SMOOTH {name = dv01;}",
"269 115 OFFCURVE",
"219 225 OFFCURVE",
"219 364 CURVE SMOOTH {name = dh02;}",
"219 504 OFFCURVE",
"269 613 OFFCURVE",
"379 613 CURVE SMOOTH {name = sv01;}",
"433 613 OFFCURVE",
"480 586 OFFCURVE",
"522 547 CURVE",
"522 708 LINE",
"477 733 OFFCURVE",
"423 743 OFFCURVE",
"370 743 CURVE SMOOTH {name = at01;}",
"172 743 OFFCURVE",
"69 590 OFFCURVE",
"69 364 CURVE SMOOTH {name = dh01;}",
"69 134 OFFCURVE",
"172 -14 OFFCURVE",
"370 -14 CURVE SMOOTH {name = hr00;}"
);
}
);
width = 600;
}
);
unicode = 0043;
},
{
glyphname = D;
lastChange = "2019-02-12 14:26:11 +0000";
layers = (
{
layerId = "A38A55E9-0FA0-41CB-858E-AFEB657F7EAC";
paths = (
{
closed = 1;
nodes = (
"215 0 LINE SMOOTH {name = ab01;}",
"448 0 OFFCURVE",
"540 128 OFFCURVE",
"540 365 CURVE SMOOTH {name = sh01;}",
"540 614 OFFCURVE",
"438 730 OFFCURVE",
"215 730 CURVE SMOOTH",
"67 730 LINE {name = hr00;}",
"67 0 LINE"
);
},
{
closed = 1;
nodes = (
"166 649 LINE {name = sh02;}",
"213 649 LINE SMOOTH {name = sv02;}",
"392 649 OFFCURVE",
"436 561 OFFCURVE",
"436 365 CURVE SMOOTH {name = ah01;}",
"436 172 OFFCURVE",
"393 81 OFFCURVE",
"213 81 CURVE SMOOTH {name = sv01;}",
"166 81 LINE"
);
}
);
width = 600;
},
{
layerId = "61F2BD45-B671-4C55-AD7E-9EE71CCEAAE6";
paths = (
{
closed = 1;
nodes = (
"221 0 LINE SMOOTH {name = ab01;}",
"468 0 OFFCURVE",
"557 118 OFFCURVE",
"557 365 CURVE SMOOTH {name = sh01;}",
"557 617 OFFCURVE",
"465 730 OFFCURVE",
"221 730 CURVE SMOOTH",
"67 730 LINE {name = hr00;}",
"67 0 LINE"
);
},
{
closed = 1;
nodes = (
"211 600 LINE {name = sh02;}",
"250 600 LINE SMOOTH {name = sv02;}",
"370 600 OFFCURVE",
"407 514 OFFCURVE",
"407 365 CURVE SMOOTH {name = ah01;}",
"407 195 OFFCURVE",
"370 130 OFFCURVE",
"250 130 CURVE SMOOTH {name = sv01;}",
"211 130 LINE"
);
}
);
width = 600;
}
);
unicode = 0044;
},
{
glyphname = E;
lastChange = "2019-02-13 00:39:52 +0000";
layers = (
{
layerId = "A38A55E9-0FA0-41CB-858E-AFEB657F7EAC";
paths = (
{
closed = 1;
nodes = (
"537 0 LINE",
"537 83 LINE",
"194 83 LINE",
"194 347 LINE",
"513 347 LINE",
"513 430 LINE",
"194 430 LINE",
"194 647 LINE",
"528 647 LINE",
"528 730 LINE",
"95 730 LINE",
"95 0 LINE"
);
}
);
width = 600;
},
{
layerId = "61F2BD45-B671-4C55-AD7E-9EE71CCEAAE6";
paths = (
{
closed = 1;
nodes = (
"536 0 LINE",
"536 127 LINE",
"226 127 LINE",
"226 318 LINE",
"507 318 LINE",
"507 445 LINE",
"226 445 LINE",
"226 603 LINE",
"536 603 LINE",
"536 730 LINE",
"82 730 LINE",
"82 0 LINE"
);
}
);
width = 600;
}
);
unicode = 0045;
},
{
glyphname = F;
lastChange = "2019-02-13 00:42:34 +0000";
layers = (
{
layerId = "A38A55E9-0FA0-41CB-858E-AFEB657F7EAC";
paths = (
{
closed = 1;
nodes = (
"212 0 LINE",
"212 338 LINE",
"511 338 LINE",
"511 421 LINE",
"212 421 LINE",
"212 647 LINE",
"542 647 LINE",
"542 730 LINE",
"113 730 LINE",
"113 0 LINE"
);
}
);
width = 600;
},
{
layerId = "61F2BD45-B671-4C55-AD7E-9EE71CCEAAE6";
paths = (
{
closed = 1;
nodes = (
"232 0 LINE",
"232 313 LINE",
"514 313 LINE",
"514 440 LINE",
"232 440 LINE",
"232 603 LINE",
"542 603 LINE",
"542 730 LINE",
"88 730 LINE",
"88 0 LINE"
);
}
);
width = 600;
}
);
unicode = 0046;
},
{
glyphname = G;
lastChange = "2019-02-13 00:54:51 +0000";
layers = (
{
layerId = "A38A55E9-0FA0-41CB-858E-AFEB657F7EAC";
paths = (
{
closed = 1;
nodes = (
"413 -14 OFFCURVE",
"486 11 OFFCURVE",
"539 60 CURVE",
"539 374 LINE",
"339 374 LINE",
"339 293 LINE",
"445 293 LINE",
"445 97 LINE",
"419 77 OFFCURVE",
"383 66 OFFCURVE",
"344 66 CURVE SMOOTH",
"227 66 OFFCURVE",
"153 167 OFFCURVE",
"153 362 CURVE SMOOTH",
"153 559 OFFCURVE",
"229 663 OFFCURVE",
"347 663 CURVE SMOOTH",
"404 663 OFFCURVE",
"463 639 OFFCURVE",
"514 590 CURVE",
"514 691 LINE",
"461 727 OFFCURVE",
"408 743 OFFCURVE",
"344 743 CURVE SMOOTH",
"160 743 OFFCURVE",
"50 601 OFFCURVE",
"50 362 CURVE SMOOTH",
"50 127 OFFCURVE",
"160 -14 OFFCURVE",
"341 -14 CURVE SMOOTH"
);
}
);
width = 600;
},
{
layerId = "61F2BD45-B671-4C55-AD7E-9EE71CCEAAE6";
paths = (
{
closed = 1;
nodes = (
"419 -14 OFFCURVE",
"495 9 OFFCURVE",
"552 58 CURVE",
"552 392 LINE",
"327 392 LINE",
"327 271 LINE",
"426 271 LINE",
"426 132 LINE",
"405 120 OFFCURVE",
"387 115 OFFCURVE",
"363 115 CURVE SMOOTH",
"233 115 OFFCURVE",
"207 262 OFFCURVE",
"207 367 CURVE SMOOTH",
"207 477 OFFCURVE",
"235 614 OFFCURVE",
"363 614 CURVE SMOOTH",
"421 614 OFFCURVE",
"487 586 OFFCURVE",
"526 535 CURVE",
"526 695 LINE",
"474 727 OFFCURVE",
"417 743 OFFCURVE",
"350 743 CURVE SMOOTH",
"118 743 OFFCURVE",
"57 564 OFFCURVE",
"57 367 CURVE SMOOTH",
"57 172 OFFCURVE",
"115 -14 OFFCURVE",
"350 -14 CURVE SMOOTH"
);
}
);
width = 600;
}
);
unicode = 0047;
},
{
glyphname = H;
lastChange = "2019-02-13 00:56:59 +0000";
layers = (
{
layerId = "A38A55E9-0FA0-41CB-858E-AFEB657F7EAC";
paths = (
{
closed = 1;
nodes = (
"165 0 LINE",
"165 347 LINE",
"435 347 LINE",
"435 0 LINE",
"534 0 LINE",
"534 730 LINE",
"435 730 LINE",
"435 430 LINE",
"165 430 LINE",
"165 730 LINE",
"66 730 LINE",
"66 0 LINE"
);
}
);
width = 600;
},
{
layerId = "61F2BD45-B671-4C55-AD7E-9EE71CCEAAE6";
paths = (
{
closed = 1;
nodes = (
"210 0 LINE",
"210 324 LINE",
"390 324 LINE",
"390 0 LINE",
"534 0 LINE",
"534 730 LINE",
"390 730 LINE",
"390 451 LINE",
"210 451 LINE",
"210 730 LINE",
"66 730 LINE",
"66 0 LINE"
);
}
);
width = 600;
}
);
unicode = 0048;
},
{
glyphname = I;
lastChange = "2019-02-13 00:59:01 +0000";
layers = (
{
layerId = "A38A55E9-0FA0-41CB-858E-AFEB657F7EAC";
paths = (
{
closed = 1;
nodes = (
"503 0 LINE",
"503 83 LINE",
"350 83 LINE",
"350 647 LINE",
"503 647 LINE",
"503 730 LINE",
"98 730 LINE",
"98 647 LINE",
"251 647 LINE",
"251 83 LINE",
"98 83 LINE",
"98 0 LINE"
);
}
);
width = 600;
},
{
layerId = "61F2BD45-B671-4C55-AD7E-9EE71CCEAAE6";
paths = (
{
closed = 1;
nodes = (
"517 0 LINE",
"517 127 LINE",
"372 127 LINE",
"372 603 LINE",
"517 603 LINE",
"517 730 LINE",
"83 730 LINE",
"83 603 LINE",
"228 603 LINE",
"228 127 LINE",
"83 127 LINE",
"83 0 LINE"
);
}
);
width = 600;
}
);
unicode = 0049;
},
{
glyphname = J;
lastChange = "2019-02-13 01:04:38 +0000";
layers = (
{
layerId = "A38A55E9-0FA0-41CB-858E-AFEB657F7EAC";
paths = (
{
closed = 1;
nodes = (
"404 -14 OFFCURVE",
"466 58 OFFCURVE",
"466 238 CURVE SMOOTH",
"466 730 LINE",
"181 730 LINE",
"181 647 LINE",
"367 647 LINE",
"367 238 LINE SMOOTH",
"367 114 OFFCURVE",
"320 66 OFFCURVE",
"231 66 CURVE SMOOTH",
"162 66 OFFCURVE",
"111 93 OFFCURVE",
"52 145 CURVE",
"52 30 LINE",
"119 0 OFFCURVE",
"182 -14 OFFCURVE",
"249 -14 CURVE SMOOTH"
);
}
);
width = 600;
},
{
layerId = "61F2BD45-B671-4C55-AD7E-9EE71CCEAAE6";
paths = (
{
closed = 1;
nodes = (
"423 -14 OFFCURVE",
"491 60 OFFCURVE",
"491 234 CURVE SMOOTH",
"491 730 LINE",
"171 730 LINE",
"171 603 LINE",
"347 603 LINE",
"347 234 LINE SMOOTH",
"347 159 OFFCURVE",
"318 115 OFFCURVE",
"241 115 CURVE SMOOTH",
"174 115 OFFCURVE",
"105 147 OFFCURVE",
"52 203 CURVE",
"52 36 LINE",
"119 4 OFFCURVE",
"196 -14 OFFCURVE",
"265 -14 CURVE SMOOTH"
);
}
);
width = 600;
}
);
unicode = 004A;
},
{
glyphname = K;
lastChange = "2019-02-13 01:06:19 +0000";
layers = (
{
layerId = "A38A55E9-0FA0-41CB-858E-AFEB657F7EAC";
paths = (
{
closed = 1;
nodes = (
"165 0 LINE",
"165 285 LINE",
"240 365 LINE",
"478 0 LINE",
"597 0 LINE",
"305 431 LINE",
"589 730 LINE",
"473 730 LINE",
"165 405 LINE",
"165 730 LINE",
"66 730 LINE",
"66 0 LINE"
);
}
);
width = 600;
},
{
layerId = "61F2BD45-B671-4C55-AD7E-9EE71CCEAAE6";
paths = (
{
closed = 1;
nodes = (
"200 0 LINE",
"200 247 LINE",
"264 328 LINE",
"437 0 LINE",
"597 0 LINE",
"359 442 LINE",
"589 729 LINE",
"426 729 LINE",
"200 441 LINE",
"200 729 LINE",
"56 729 LINE",
"56 0 LINE"
);
}
);
width = 600;
}
);
unicode = 004B;
},
{
glyphname = L;
lastChange = "2019-02-13 01:08:14 +0000";
layers = (
{
layerId = "A38A55E9-0FA0-41CB-858E-AFEB657F7EAC";
paths = (
{
closed = 1;
nodes = (
"555 0 LINE",
"555 83 LINE",
"203 83 LINE",
"203 730 LINE",
"104 730 LINE",
"104 0 LINE"
);
}
);
width = 600;
},
{
layerId = "61F2BD45-B671-4C55-AD7E-9EE71CCEAAE6";
paths = (
{
closed = 1;
nodes = (
"560 0 LINE",
"560 127 LINE",
"252 127 LINE",
"252 730 LINE",
"108 730 LINE",
"108 0 LINE"
);
}
);
width = 600;
}
);
unicode = 004C;
},
{
glyphname = M;
lastChange = "2019-02-13 01:10:17 +0000";
layers = (
{
layerId = "A38A55E9-0FA0-41CB-858E-AFEB657F7EAC";
paths = (
{
closed = 1;
nodes = (
"133 0 LINE",
"133 645 LINE",
"263 260 LINE",
"338 260 LINE",
"468 645 LINE",
"468 0 LINE",
"559 0 LINE",
"559 730 LINE",
"427 730 LINE",
"300 358 LINE",
"174 730 LINE",
"42 730 LINE",
"42 0 LINE"
);
}
);
width = 600;
},
{
layerId = "61F2BD45-B671-4C55-AD7E-9EE71CCEAAE6";
paths = (
{
closed = 1;
nodes = (
"165 0 LINE",
"165 585 LINE",
"243 265 LINE",
"358 265 LINE",
"435 585 LINE",
"435 0 LINE",
"559 0 LINE",
"559 730 LINE",
"386 730 LINE",
"300 409 LINE",
"213 730 LINE",
"41 730 LINE",
"41 0 LINE"
);
}
);
width = 600;
}
);
unicode = 004D;
},
{
glyphname = N;
lastChange = "2019-02-13 01:12:55 +0000";
layers = (
{
layerId = "A38A55E9-0FA0-41CB-858E-AFEB657F7EAC";
paths = (
{
closed = 1;
nodes = (
"162 0 LINE",
"162 601 LINE",
"408 0 LINE",
"533 0 LINE",
"533 730 LINE",
"438 730 LINE",
"438 129 LINE",
"192 730 LINE",
"67 730 LINE",
"67 0 LINE"
);
}
);
width = 600;
},
{
layerId = "61F2BD45-B671-4C55-AD7E-9EE71CCEAAE6";
paths = (
{
closed = 1;
nodes = (
"185 0 LINE",
"185 531 LINE",
"389 0 LINE",
"543 0 LINE",
"543 730 LINE",
"416 730 LINE",
"416 199 LINE",
"213 730 LINE",
"58 730 LINE",
"58 0 LINE"
);
}
);
width = 600;
}
);
unicode = 004E;
},
{
glyphname = O;
lastChange = "2019-02-13 01:26:34 +0000";
layers = (
{
layerId = "A38A55E9-0FA0-41CB-858E-AFEB657F7EAC";
paths = (
{
closed = 1;
nodes = (
"460 -14 OFFCURVE",
"544 115 OFFCURVE",
"544 364 CURVE SMOOTH",
"544 613 OFFCURVE",
"460 742 OFFCURVE",
"300 742 CURVE SMOOTH",
"139 742 OFFCURVE",
"56 612 OFFCURVE",
"56 364 CURVE SMOOTH",
"56 115 OFFCURVE",
"139 -14 OFFCURVE",
"299 -14 CURVE SMOOTH"
);
},
{
closed = 1;
nodes = (
"179 66 OFFCURVE",
"159 199 OFFCURVE",
"159 364 CURVE SMOOTH",
"159 530 OFFCURVE",
"178 662 OFFCURVE",
"299 662 CURVE SMOOTH",
"419 662 OFFCURVE",
"441 530 OFFCURVE",
"441 364 CURVE SMOOTH",
"441 199 OFFCURVE",
"421 66 OFFCURVE",
"299 66 CURVE SMOOTH"
);
}
);
width = 600;
},
{
layerId = "61F2BD45-B671-4C55-AD7E-9EE71CCEAAE6";
paths = (
{
closed = 1;
nodes = (
"466 -14 OFFCURVE",
"557 121 OFFCURVE",
"557 364 CURVE SMOOTH",
"557 609 OFFCURVE",
"465 742 OFFCURVE",
"301 742 CURVE SMOOTH",
"135 742 OFFCURVE",
"45 610 OFFCURVE",
"45 364 CURVE SMOOTH",
"45 129 OFFCURVE",
"139 -14 OFFCURVE",
"301 -14 CURVE SMOOTH"
);
},
{
closed = 1;
nodes = (
"226 115 OFFCURVE",
"193 201 OFFCURVE",
"193 364 CURVE SMOOTH",
"193 530 OFFCURVE",
"226 613 OFFCURVE",
"301 613 CURVE SMOOTH",
"375 613 OFFCURVE",
"409 530 OFFCURVE",
"409 364 CURVE SMOOTH",
"409 201 OFFCURVE",
"375 115 OFFCURVE",
"301 115 CURVE SMOOTH"
);
}
);
width = 600;
}
);
unicode = 004F;
},
{
glyphname = P;
lastChange = "2019-02-13 01:43:36 +0000";
layers = (
{
layerId = "A38A55E9-0FA0-41CB-858E-AFEB657F7EAC";
paths = (
{
closed = 1;
nodes = (
"183 0 LINE",
"183 293 LINE",
"297 293 LINE SMOOTH",
"443 293 OFFCURVE",
"545 354 OFFCURVE",
"545 511 CURVE SMOOTH",
"545 669 OFFCURVE",
"443 730 OFFCURVE",
"297 730 CURVE SMOOTH",
"84 730 LINE",
"84 0 LINE"
);
},
{
closed = 1;
nodes = (
"183 649 LINE",
"297 649 LINE SMOOTH",
"385 649 OFFCURVE",
"442 604 OFFCURVE",
"442 513 CURVE SMOOTH",
"442 422 OFFCURVE",
"385 374 OFFCURVE",
"297 374 CURVE SMOOTH",
"183 374 LINE"
);
}
);
width = 600;
},
{
layerId = "61F2BD45-B671-4C55-AD7E-9EE71CCEAAE6";
paths = (
{
closed = 1;
nodes = (
"225 0 LINE",
"225 274 LINE",
"292 274 LINE",
"449 277 OFFCURVE",
"562 319 OFFCURVE",
"562 501 CURVE SMOOTH",
"562 689 OFFCURVE",
"449 730 OFFCURVE",
"292 730 CURVE SMOOTH",
"81 730 LINE",
"81 0 LINE"
);
},
{
closed = 1;
nodes = (
"225 609 LINE",
"292 609 LINE SMOOTH",
"366 609 OFFCURVE",
"412 591 OFFCURVE",
"412 501 CURVE SMOOTH",
"412 413 OFFCURVE",
"366 394 OFFCURVE",
"292 394 CURVE SMOOTH",
"225 394 LINE"
);
}
);
width = 600;
}
);
unicode = 0050;
},
{
glyphname = Q;
lastChange = "2019-02-13 02:00:59 +0000";
layers = (
{
layerId = "A38A55E9-0FA0-41CB-858E-AFEB657F7EAC";
paths = (
{
closed = 1;
nodes = (
"587 -171 LINE",
"410 10 LINE",
"492 76 OFFCURVE",
"545 158 OFFCURVE",
"545 365 CURVE SMOOTH",
"545 614 OFFCURVE",
"462 742 OFFCURVE",
"301 742 CURVE SMOOTH",
"141 742 OFFCURVE",
"57 614 OFFCURVE",
"57 365 CURVE SMOOTH",
"57 158 OFFCURVE",
"114 -13 OFFCURVE",
"320 -13 CURVE",
"472 -171 LINE"
);
},
{
closed = 1;
nodes = (
"180 66 OFFCURVE",
"160 200 OFFCURVE",
"160 365 CURVE SMOOTH",
"160 531 OFFCURVE",
"180 662 OFFCURVE",
"301 662 CURVE SMOOTH",
"422 662 OFFCURVE",
"442 531 OFFCURVE",
"442 365 CURVE SMOOTH",
"442 200 OFFCURVE",
"421 66 OFFCURVE",
"301 66 CURVE SMOOTH"
);
}
);
width = 600;
},
{
layerId = "61F2BD45-B671-4C55-AD7E-9EE71CCEAAE6";
paths = (
{
closed = 1;
nodes = (
"602 -171 LINE",
"437 25 LINE",
"514 74 OFFCURVE",
"557 204 OFFCURVE",
"557 365 CURVE SMOOTH",
"557 615 OFFCURVE",
"466 742 OFFCURVE",
"300 742 CURVE SMOOTH",
"135 742 OFFCURVE",
"45 614 OFFCURVE",
"45 365 CURVE SMOOTH",
"45 153 OFFCURVE",
"157 -11 OFFCURVE",
"319 -11 CURVE",
"435 -171 LINE"
);
},
{
closed = 1;
nodes = (
"228 118 OFFCURVE",
"195 209 OFFCURVE",
"195 365 CURVE SMOOTH",
"195 534 OFFCURVE",
"228 613 OFFCURVE",
"300 613 CURVE SMOOTH",
"372 613 OFFCURVE",
"407 534 OFFCURVE",
"407 365 CURVE SMOOTH",
"407 209 OFFCURVE",
"372 118 OFFCURVE",
"300 118 CURVE SMOOTH"
);
}
);
width = 600;
}
);
unicode = 0051;
},
{
glyphname = R;
lastChange = "2019-02-14 04:50:12 +0000";
layers = (
{
layerId = "A38A55E9-0FA0-41CB-858E-AFEB657F7EAC";
paths = (
{
closed = 1;
nodes = (
"167 0 LINE",
"167 308 LINE",
"261 308 LINE SMOOTH",
"304 308 OFFCURVE",
"368 266 OFFCURVE",
"407 184 CURVE SMOOTH",
"494 0 LINE",
"600 0 LINE",
"498 206 LINE SMOOTH",
"471 260 OFFCURVE",
"437 327 OFFCURVE",
"369 344 CURVE",
"465 358 OFFCURVE",
"519 423 OFFCURVE",
"519 526 CURVE SMOOTH",
"519 648 OFFCURVE",
"443 730 OFFCURVE",
"271 730 CURVE SMOOTH",
"68 730 LINE",
"68 0 LINE"
);
},
{
closed = 1;
nodes = (
"167 649 LINE",
"271 649 LINE SMOOTH",
"367 649 OFFCURVE",
"415 607 OFFCURVE",
"415 516 CURVE SMOOTH",
"415 424 OFFCURVE",
"367 389 OFFCURVE",
"275 389 CURVE SMOOTH",
"167 389 LINE"
);
}
);
width = 600;
},
{
layerId = "61F2BD45-B671-4C55-AD7E-9EE71CCEAAE6";
paths = (
{
closed = 1;
nodes = (
"207 0 LINE",
"207 288 LINE",
"253 288 LINE SMOOTH",
"305 288 OFFCURVE",
"330 236 OFFCURVE",
"351 191 CURVE SMOOTH",
"442 0 LINE",
"600 0 LINE",
"465 272 LINE SMOOTH",
"448 305 OFFCURVE",
"432 335 OFFCURVE",
"392 344 CURVE",
"492 357 OFFCURVE",
"534 425 OFFCURVE",
"534 527 CURVE SMOOTH",
"534 693 OFFCURVE",
"422 730 OFFCURVE",
"271 730 CURVE SMOOTH",
"63 730 LINE",
"63 0 LINE"
);
},
{
closed = 1;
nodes = (
"207 609 LINE",
"275 609 LINE SMOOTH",
"347 609 OFFCURVE",
"385 586 OFFCURVE",
"385 510 CURVE SMOOTH",
"385 433 OFFCURVE",
"347 410 OFFCURVE",
"275 410 CURVE SMOOTH",
"207 410 LINE"
);
}
);
width = 600;
}
);
unicode = 0052;
},
{
glyphname = S;
lastChange = "2019-02-21 02:09:44 +0000";
layers = (
{
layerId = "A38A55E9-0FA0-41CB-858E-AFEB657F7EAC";
paths = (
{
closed = 1;
nodes = (
"449 -14 OFFCURVE",
"536 61 OFFCURVE",
"536 201 CURVE SMOOTH",
"536 322 OFFCURVE",
"471 367 OFFCURVE",
"313 420 CURVE SMOOTH",
"206 456 OFFCURVE",
"162 487 OFFCURVE",
"162 545 CURVE SMOOTH",
"162 617 OFFCURVE",
"228 662 OFFCURVE",
"313 662 CURVE SMOOTH",
"370 662 OFFCURVE",
"434 642 OFFCURVE",
"494 604 CURVE",
"494 704 LINE",
"428 729 OFFCURVE",
"366 742 OFFCURVE",
"309 742 CURVE SMOOTH",
"162 742 OFFCURVE",
"68 657 OFFCURVE",
"68 527 CURVE SMOOTH",
"68 423 OFFCURVE",
"127 380 OFFCURVE",
"274 330 CURVE SMOOTH",
"405 285 OFFCURVE",
"442 250 OFFCURVE",
"442 187 CURVE SMOOTH",
"442 96 OFFCURVE",
"370 66 OFFCURVE",
"286 66 CURVE SMOOTH",
"215 66 OFFCURVE",
"150 88 OFFCURVE",
"77 135 CURVE",
"77 30 LINE",
"148 0 OFFCURVE",
"218 -14 OFFCURVE",
"288 -14 CURVE SMOOTH"
);
}
);
width = 600;
},
{
layerId = "61F2BD45-B671-4C55-AD7E-9EE71CCEAAE6";
paths = (
{
closed = 1;
nodes = (
"453 -14 OFFCURVE",
"542 65 OFFCURVE",
"542 200 CURVE SMOOTH",
"542 357 OFFCURVE",
"426 403 OFFCURVE",
"331 441 CURVE SMOOTH",
"263 468 OFFCURVE",
"204 485 OFFCURVE",
"204 544 CURVE SMOOTH",
"204 593 OFFCURVE",
"244 623 OFFCURVE",
"312 623 CURVE SMOOTH",
"374 623 OFFCURVE",
"440 600 OFFCURVE",
"501 556 CURVE",
"501 697 LINE",
"433 728 OFFCURVE",
"373 742 OFFCURVE",
"308 742 CURVE SMOOTH",
"154 742 OFFCURVE",
"63 680 OFFCURVE",
"63 533 CURVE SMOOTH",
"63 377 OFFCURVE",
"172 374 OFFCURVE",
"269 326 CURVE SMOOTH",
"366 278 OFFCURVE",
"396 253 OFFCURVE",
"396 200 CURVE SMOOTH",
"396 136 OFFCURVE",
"354 105 OFFCURVE",
"281 105 CURVE SMOOTH",
"214 105 OFFCURVE",
"141 132 OFFCURVE",
"66 186 CURVE",
"66 37 LINE",
"124 7 OFFCURVE",
"217 -14 OFFCURVE",
"299 -14 CURVE SMOOTH"
);
}
);
width = 600;
}
);
unicode = 0053;
},
{
glyphname = T;
lastChange = "2019-02-21 02:13:49 +0000";
layers = (
{
layerId = "A38A55E9-0FA0-41CB-858E-AFEB657F7EAC";
paths = (
{
closed = 1;
nodes = (
"350 0 LINE",
"350 647 LINE",
"578 647 LINE",
"578 730 LINE",
"22 730 LINE",
"22 647 LINE",
"251 647 LINE",
"251 0 LINE"
);
}
);
width = 600;
},
{
layerId = "61F2BD45-B671-4C55-AD7E-9EE71CCEAAE6";
paths = (
{
closed = 1;
nodes = (
"372 0 LINE",
"372 604 LINE",
"557 604 LINE",
"557 730 LINE",
"43 730 LINE",
"43 604 LINE",
"228 604 LINE",
"228 0 LINE"
);
}
);
width = 600;
}
);
unicode = 0054;
},
{
glyphname = U;
lastChange = "2019-02-21 02:22:45 +0000";
layers = (
{
layerId = "A38A55E9-0FA0-41CB-858E-AFEB657F7EAC";
paths = (
{
closed = 1;
nodes = (
"467 -14 OFFCURVE",
"529 70 OFFCURVE",
"529 280 CURVE SMOOTH",
"529 730 LINE",
"430 730 LINE",
"430 234 LINE SMOOTH",
"430 119 OFFCURVE",
"392 66 OFFCURVE",
"300 66 CURVE SMOOTH",
"208 66 OFFCURVE",
"170 119 OFFCURVE",
"170 234 CURVE SMOOTH",
"170 730 LINE",
"71 730 LINE",
"71 280 LINE SMOOTH",
"71 70 OFFCURVE",
"133 -14 OFFCURVE",
"300 -14 CURVE SMOOTH"
);
}
);
width = 600;
},
{
layerId = "61F2BD45-B671-4C55-AD7E-9EE71CCEAAE6";
paths = (
{
closed = 1;
nodes = (
"472 -14 OFFCURVE",
"549 82 OFFCURVE",
"549 269 CURVE SMOOTH",
"549 730 LINE",
"405 730 LINE",
"405 233 LINE SMOOTH",
"405 160 OFFCURVE",
"366 116 OFFCURVE",
"300 116 CURVE SMOOTH",
"234 116 OFFCURVE",
"195 160 OFFCURVE",
"195 233 CURVE SMOOTH",
"195 730 LINE",
"51 730 LINE",
"51 269 LINE SMOOTH",
"51 82 OFFCURVE",
"128 -14 OFFCURVE",
"300 -14 CURVE SMOOTH"
);
}
);
width = 600;
}
);
unicode = 0055;
},
{
glyphname = V;
lastChange = "2019-02-21 02:24:30 +0000";
layers = (
{
layerId = "A38A55E9-0FA0-41CB-858E-AFEB657F7EAC";
paths = (
{
closed = 1;
nodes = (
"360 0 LINE",
"573 729 LINE",
"471 729 LINE",
"300 83 LINE",
"129 729 LINE",
"27 729 LINE",
"240 0 LINE"
);
}
);
width = 600;
},
{
layerId = "61F2BD45-B671-4C55-AD7E-9EE71CCEAAE6";
paths = (
{
closed = 1;
nodes = (
"400 0 LINE",
"573 730 LINE",
"428 730 LINE",
"300 120 LINE",
"172 730 LINE",
"27 730 LINE",
"200 0 LINE"
);
}
);
width = 600;
}
);
unicode = 0056;
},
{
glyphname = W;
lastChange = "2019-02-21 02:26:20 +0000";
layers = (
{
layerId = "A38A55E9-0FA0-41CB-858E-AFEB657F7EAC";
paths = (
{
closed = 1;
nodes = (
"202 0 LINE",
"301 433 LINE",
"400 0 LINE",
"493 0 LINE",
"602 730 LINE",
"506 730 LINE",
"436 136 LINE",
"352 529 LINE",
"249 529 LINE",
"166 137 LINE",
"96 730 LINE",
"0 730 LINE",
"109 0 LINE"
);
}
);
width = 600;
},
{
layerId = "61F2BD45-B671-4C55-AD7E-9EE71CCEAAE6";
paths = (
{
closed = 1;
nodes = (
"223 0 LINE",
"301 383 LINE",
"384 0 LINE",
"518 0 LINE",
"602 730 LINE",
"475 730 LINE",
"434 194 LINE",
"361 540 LINE",
"241 540 LINE",
"178 194 LINE",
"126 730 LINE",
"0 730 LINE",
"90 0 LINE"
);
}
);
width = 600;
}
);
unicode = 0057;
},
{
glyphname = X;
lastChange = "2019-02-21 02:30:54 +0000";
layers = (
{
layerId = "A38A55E9-0FA0-41CB-858E-AFEB657F7EAC";
paths = (
{
closed = 1;
nodes = (
"114 0 LINE",
"307 304 LINE",
"486 0 LINE",
"592 0 LINE",
"358 374 LINE",
"576 730 LINE",
"470 730 LINE",
"307 444 LINE",
"147 730 LINE",
"41 730 LINE",
"252 374 LINE",
"8 0 LINE"
);
}
);
width = 600;
},
{
layerId = "61F2BD45-B671-4C55-AD7E-9EE71CCEAAE6";
paths = (
{
closed = 1;
nodes = (
"161 0 LINE",
"300 241 LINE",
"439 0 LINE",
"588 0 LINE",
"375 369 LINE",
"582 730 LINE",
"433 730 LINE",
"300 497 LINE",
"167 730 LINE",
"18 730 LINE",
"226 369 LINE",
"12 0 LINE"
);
}
);
width = 600;
}
);
unicode = 0058;
},
{
glyphname = Y;
lastChange = "2019-02-21 02:35:53 +0000";
layers = (
{
layerId = "A38A55E9-0FA0-41CB-858E-AFEB657F7EAC";
paths = (
{
closed = 1;
nodes = (
"350 0 LINE",
"350 327 LINE",
"582 730 LINE",
"477 730 LINE",
"300 407 LINE",
"122 730 LINE",
"17 730 LINE",
"250 327 LINE",
"250 0 LINE"
);
}
);
width = 600;
},
{
layerId = "61F2BD45-B671-4C55-AD7E-9EE71CCEAAE6";
paths = (
{
closed = 1;
nodes = (
"372 0 LINE",
"372 287 LINE",
"597 730 LINE",
"442 730 LINE",
"300 436 LINE",
"158 730 LINE",
"3 730 LINE",
"228 287 LINE",
"228 0 LINE"
);
}
);
width = 600;
}
);
unicode = 0059;
},
{
glyphname = Z;
lastChange = "2019-02-21 02:38:18 +0000";
layers = (
{
layerId = "A38A55E9-0FA0-41CB-858E-AFEB657F7EAC";
paths = (
{
closed = 1;
nodes = (
"547 0 LINE",
"547 83 LINE",
"156 83 LINE",
"537 655 LINE",
"537 730 LINE",
"63 730 LINE",
"63 647 LINE",
"423 647 LINE",
"53 75 LINE",
"53 0 LINE"
);
}
);
width = 600;
},
{
layerId = "61F2BD45-B671-4C55-AD7E-9EE71CCEAAE6";
paths = (
{
closed = 1;
nodes = (
"556 0 LINE",
"556 127 LINE",
"211 127 LINE",
"549 611 LINE",
"549 730 LINE",
"56 730 LINE",
"56 603 LINE",
"373 603 LINE",
"45 119 LINE",
"45 0 LINE"
);
}
);
width = 600;
}
);
unicode = 005A;
},
{
glyphname = a;
lastChange = "2019-02-13 02:17:44 +0000";
layers = (
{
layerId = "A38A55E9-0FA0-41CB-858E-AFEB657F7EAC";
paths = (
{
closed = 1;
nodes = (
"324 -14 OFFCURVE",
"398 17 OFFCURVE",
"436 83 CURVE",
"440 56 OFFCURVE",
"446 25 OFFCURVE",
"457 0 CURVE",
"547 0 LINE",
"523 57 OFFCURVE",
"519 139 OFFCURVE",
"519 200 CURVE SMOOTH",
"519 312 LINE SMOOTH",
"519 502 OFFCURVE",
"462 560 OFFCURVE",
"291 560 CURVE SMOOTH",
"209 560 OFFCURVE",
"166 544 OFFCURVE",
"106 522 CURVE",
"106 432 LINE",
"162 464 OFFCURVE",
"235 484 OFFCURVE",
"291 484 CURVE SMOOTH",
"384 484 OFFCURVE",
"428 436 OFFCURVE",
"428 345 CURVE",
"308 345 LINE SMOOTH",
"183 345 OFFCURVE",
"66 304 OFFCURVE",
"66 163 CURVE SMOOTH",
"66 48 OFFCURVE",
"143 -14 OFFCURVE",
"249 -14 CURVE SMOOTH"
);
},
{
closed = 1;
nodes = (
"203 61 OFFCURVE",
"156 95 OFFCURVE",
"156 164 CURVE SMOOTH",
"156 256 OFFCURVE",
"239 275 OFFCURVE",
"314 275 CURVE SMOOTH",
"428 275 LINE",
"428 255 LINE SMOOTH",
"428 153 OFFCURVE",
"383 61 OFFCURVE",
"271 61 CURVE SMOOTH"
);
}
);
width = 600;
},
{
layerId = "61F2BD45-B671-4C55-AD7E-9EE71CCEAAE6";
paths = (
{
closed = 1;
nodes = (
"304 -14 OFFCURVE",
"364 10 OFFCURVE",
"402 61 CURVE",
"406 36 OFFCURVE",
"410 22 OFFCURVE",
"422 0 CURVE",
"564 0 LINE",
"540 60 OFFCURVE",
"539 94 OFFCURVE",
"539 122 CURVE SMOOTH",
"539 320 LINE SMOOTH",
"539 514 OFFCURVE",
"482 561 OFFCURVE",
"303 561 CURVE SMOOTH",
"234 561 OFFCURVE",
"168 549 OFFCURVE",
"101 522 CURVE",
"101 400 LINE",
"164 434 OFFCURVE",
"222 454 OFFCURVE",
"291 454 CURVE SMOOTH",
"370 454 OFFCURVE",
"399 429 OFFCURVE",
"399 360 CURVE",
"300 360 LINE SMOOTH",
"168 360 OFFCURVE",
"46 328 OFFCURVE",
"46 174 CURVE SMOOTH",
"46 52 OFFCURVE",
"123 -14 OFFCURVE",
"236 -14 CURVE SMOOTH"
);
},
{
closed = 1;
nodes = (
"230 85 OFFCURVE",
"199 116 OFFCURVE",
"199 169 CURVE SMOOTH",
"199 252 OFFCURVE",
"275 257 OFFCURVE",
"342 257 CURVE SMOOTH",
"399 257 LINE",
"399 247 LINE SMOOTH",
"399 170 OFFCURVE",
"373 85 OFFCURVE",
"283 85 CURVE SMOOTH"
);
}
);
width = 600;
}
);
unicode = 0061;
},
{
glyphname = b;
lastChange = "2019-02-21 02:47:52 +0000";
layers = (
{
layerId = "A38A55E9-0FA0-41CB-858E-AFEB657F7EAC";
paths = (
{
closed = 1;
nodes = (
"492 -14 OFFCURVE",
"543 137 OFFCURVE",
"543 273 CURVE SMOOTH",
"543 409 OFFCURVE",
"492 560 OFFCURVE",
"335 560 CURVE SMOOTH",
"268 560 OFFCURVE",
"215 534 OFFCURVE",
"184 477 CURVE",
"184 760 LINE",
"94 760 LINE",
"94 0 LINE",
"175 0 LINE",
"184 69 LINE",
"215 14 OFFCURVE",
"268 -14 OFFCURVE",
"335 -14 CURVE SMOOTH"
);
},
{
closed = 1;
nodes = (
"203 62 OFFCURVE",
"184 183 OFFCURVE",
"184 273 CURVE SMOOTH",
"184 362 OFFCURVE",
"203 484 OFFCURVE",
"317 484 CURVE SMOOTH",
"430 484 OFFCURVE",
"448 362 OFFCURVE",
"448 273 CURVE SMOOTH",
"448 183 OFFCURVE",
"430 62 OFFCURVE",
"317 62 CURVE SMOOTH"
);
}
);
width = 600;
},
{
layerId = "61F2BD45-B671-4C55-AD7E-9EE71CCEAAE6";
paths = (
{
closed = 1;
nodes = (
"484 -14 OFFCURVE",
"558 94 OFFCURVE",
"558 274 CURVE SMOOTH",
"558 454 OFFCURVE",
"484 560 OFFCURVE",
"361 560 CURVE SMOOTH",
"296 560 OFFCURVE",
"249 531 OFFCURVE",
"216 469 CURVE",
"216 760 LINE",
"73 760 LINE",
"73 0 LINE",
"202 0 LINE",
"216 81 LINE",
"249 18 OFFCURVE",
"296 -14 OFFCURVE",
"361 -14 CURVE SMOOTH"
);
},
{
closed = 1;
nodes = (
"255 103 OFFCURVE",
"216 170 OFFCURVE",
"216 272 CURVE SMOOTH",
"216 374 OFFCURVE",
"257 441 OFFCURVE",
"317 441 CURVE SMOOTH",
"377 441 OFFCURVE",
"415 374 OFFCURVE",
"415 272 CURVE SMOOTH",
"415 170 OFFCURVE",
"377 103 OFFCURVE",
"316 103 CURVE SMOOTH"
);
}
);
width = 600;
}
);
unicode = 0062;
},
{
glyphname = c;
lastChange = "2019-02-21 02:59:08 +0000";
layers = (
{
layerId = "A38A55E9-0FA0-41CB-858E-AFEB657F7EAC";
paths = (
{
closed = 1;
nodes = (
"404 -14 OFFCURVE",
"453 -1 OFFCURVE",
"502 28 CURVE",
"502 122 LINE",
"457 81 OFFCURVE",
"411 62 OFFCURVE",
"353 62 CURVE SMOOTH",
"222 62 OFFCURVE",
"174 156 OFFCURVE",
"174 273 CURVE SMOOTH",
"174 390 OFFCURVE",
"222 485 OFFCURVE",
"353 485 CURVE SMOOTH",
"411 485 OFFCURVE",
"457 466 OFFCURVE",
"502 425 CURVE",
"502 519 LINE",
"453 547 OFFCURVE",
"404 561 OFFCURVE",
"345 561 CURVE SMOOTH",
"171 561 OFFCURVE",
"79 443 OFFCURVE",
"79 273 CURVE SMOOTH",
"79 103 OFFCURVE",
"171 -14 OFFCURVE",
"343 -14 CURVE SMOOTH"
);
}
);
width = 600;
},
{
layerId = "61F2BD45-B671-4C55-AD7E-9EE71CCEAAE6";
paths = (
{
closed = 1;
nodes = (
"403 -14 OFFCURVE",
"455 -1 OFFCURVE",
"507 28 CURVE",
"507 159 LINE",
"466 123 OFFCURVE",
"417 103 OFFCURVE",
"363 103 CURVE SMOOTH",
"269 103 OFFCURVE",
"216 163 OFFCURVE",
"216 273 CURVE SMOOTH",
"216 383 OFFCURVE",
"269 444 OFFCURVE",
"363 444 CURVE SMOOTH",
"414 444 OFFCURVE",
"466 426 OFFCURVE",
"507 388 CURVE",
"507 519 LINE",
"455 548 OFFCURVE",
"403 561 OFFCURVE",
"343 561 CURVE SMOOTH",
"172 561 OFFCURVE",
"71 452 OFFCURVE",
"71 272 CURVE SMOOTH",
"71 92 OFFCURVE",
"172 -14 OFFCURVE",
"343 -14 CURVE SMOOTH"
);
}
);
width = 600;
}
);
unicode = 0063;
},
{
glyphname = d;
lastChange = "2019-02-21 04:25:19 +0000";
layers = (
{
layerId = "A38A55E9-0FA0-41CB-858E-AFEB657F7EAC";
paths = (
{
closed = 1;
nodes = (
"336 -14 OFFCURVE",
"388 13 OFFCURVE",
"419 69 CURVE",
"428 0 LINE",
"509 0 LINE",
"509 760 LINE",
"419 760 LINE",
"419 477 LINE",
"388 534 OFFCURVE",
"336 560 OFFCURVE",
"271 560 CURVE SMOOTH",
"127 560 OFFCURVE",
"60 430 OFFCURVE",
"60 273 CURVE SMOOTH",
"60 116 OFFCURVE",
"127 -14 OFFCURVE",
"271 -14 CURVE SMOOTH"
);
},
{
closed = 1;
nodes = (
"173 62 OFFCURVE",
"155 183 OFFCURVE",
"155 273 CURVE SMOOTH",
"155 360 OFFCURVE",
"173 484 OFFCURVE",
"287 484 CURVE SMOOTH",
"400 484 OFFCURVE",
"419 360 OFFCURVE",
"419 273 CURVE SMOOTH",
"419 181 OFFCURVE",
"400 62 OFFCURVE",
"287 62 CURVE SMOOTH"
);
}
);
width = 600;
},
{
layerId = "61F2BD45-B671-4C55-AD7E-9EE71CCEAAE6";
paths = (
{
closed = 1;
nodes = (
"306 -14 OFFCURVE",
"356 18 OFFCURVE",
"386 81 CURVE",
"400 0 LINE",
"529 0 LINE",
"529 760 LINE",
"386 760 LINE",
"386 469 LINE",
"350 532 OFFCURVE",
"306 560 OFFCURVE",
"242 560 CURVE SMOOTH",
"119 560 OFFCURVE",
"44 452 OFFCURVE",
"44 272 CURVE SMOOTH",
"44 92 OFFCURVE",
"119 -14 OFFCURVE",
"242 -14 CURVE SMOOTH"
);
},
{
closed = 1;
nodes = (
"223 104 OFFCURVE",
"187 169 OFFCURVE",
"187 273 CURVE SMOOTH",
"187 377 OFFCURVE",
"223 442 OFFCURVE",
"286 442 CURVE SMOOTH",
"349 442 OFFCURVE",
"386 377 OFFCURVE",
"386 273 CURVE SMOOTH",
"386 169 OFFCURVE",
"349 104 OFFCURVE",
"286 104 CURVE SMOOTH"
);
}
);
width = 600;
}
);
unicode = 0064;
},
{
glyphname = e;
lastChange = "2019-02-21 14:35:05 +0000";
layers = (
{
layerId = "A38A55E9-0FA0-41CB-858E-AFEB657F7EAC";
paths = (
{
closed = 1;
nodes = (
"381 -14 OFFCURVE",
"451 -7 OFFCURVE",
"522 28 CURVE",
"522 122 LINE",
"453 85 OFFCURVE",
"381 74 OFFCURVE",
"326 74 CURVE SMOOTH",
"232 74 OFFCURVE",
"154 152 OFFCURVE",
"154 252 CURVE",
"543 252 LINE",
"543 273 LINE SMOOTH",
"543 453 OFFCURVE",
"461 560 OFFCURVE",
"306 560 CURVE SMOOTH",
"151 560 OFFCURVE",
"61 453 OFFCURVE",
"61 273 CURVE SMOOTH",
"61 93 OFFCURVE",
"156 -14 OFFCURVE",
"325 -14 CURVE SMOOTH"
);
},
{
closed = 1;
nodes = (
"158 412 OFFCURVE",
"208 484 OFFCURVE",
"306 484 CURVE SMOOTH",
"404 484 OFFCURVE",
"454 412 OFFCURVE",
"454 322 CURVE",
"158 322 LINE"
);
}
);
width = 600;
},
{
layerId = "61F2BD45-B671-4C55-AD7E-9EE71CCEAAE6";
paths = (
{
closed = 1;
nodes = (
"400 -14 OFFCURVE",
"470 0 OFFCURVE",
"536 27 CURVE",
"536 158 LINE",
"470 119 OFFCURVE",
"393 99 OFFCURVE",
"335 99 CURVE SMOOTH",
"239 99 OFFCURVE",
"194 152 OFFCURVE",
"194 227 CURVE",
"559 227 LINE",
"559 270 LINE SMOOTH",
"559 445 OFFCURVE",
"451 560 OFFCURVE",
"301 560 CURVE SMOOTH",
"151 560 OFFCURVE",
"43 445 OFFCURVE",
"43 270 CURVE SMOOTH",
"43 95 OFFCURVE",
"143 -14 OFFCURVE",
"335 -14 CURVE SMOOTH"
);
},
{
closed = 1;
nodes = (
"192 409 OFFCURVE",
"236 449 OFFCURVE",
"301 449 CURVE SMOOTH",
"366 449 OFFCURVE",
"414 409 OFFCURVE",
"414 334 CURVE",
"192 334 LINE"
);
}
);
width = 600;
}
);
unicode = 0065;
},
{
glyphname = f;
lastChange = "2019-02-22 04:56:05 +0000";
layers = (
{
layerId = "A38A55E9-0FA0-41CB-858E-AFEB657F7EAC";
paths = (
{
closed = 1;
nodes = (
"316 0 LINE",
"316 480 LINE",
"504 480 LINE",
"504 550 LINE",
"316 550 LINE",
"316 590 LINE SMOOTH",
"316 646 OFFCURVE",
"326 685 OFFCURVE",
"399 685 CURVE SMOOTH",
"504 685 LINE",
"504 760 LINE",
"399 760 LINE SMOOTH",
"279 760 OFFCURVE",
"227 696 OFFCURVE",
"227 590 CURVE SMOOTH",
"227 550 LINE",
"81 550 LINE",
"81 480 LINE",
"227 480 LINE",
"227 0 LINE"
);
}
);
width = 600;
},
{
layerId = "61F2BD45-B671-4C55-AD7E-9EE71CCEAAE6";
paths = (
{
closed = 1;
nodes = (
"350 0 LINE",
"350 440 LINE",
"518 440 LINE",
"518 550 LINE",
"350 550 LINE",
"350 595 LINE SMOOTH",
"350 635 OFFCURVE",
"366 650 OFFCURVE",
"403 650 CURVE SMOOTH",
"518 650 LINE",
"518 760 LINE",
"403 760 LINE SMOOTH",
"254 760 OFFCURVE",
"207 731 OFFCURVE",
"207 585 CURVE SMOOTH",
"207 550 LINE",
"74 550 LINE",
"74 440 LINE",
"207 440 LINE",
"207 0 LINE"
);
}
);
width = 600;
}
);
unicode = 0066;
},
{
glyphname = g;
lastChange = "2019-02-22 04:55:40 +0000";
layers = (
{
layerId = "A38A55E9-0FA0-41CB-858E-AFEB657F7EAC";
paths = (
{
closed = 1;
nodes = (
"454 -215 OFFCURVE",
"522 -118 OFFCURVE",
"522 35 CURVE SMOOTH",
"522 550 LINE",
"441 550 LINE",
"433 474 LINE",
"402 534 OFFCURVE",
"352 560 OFFCURVE",
"286 560 CURVE SMOOTH",
"129 560 OFFCURVE",
"74 410 OFFCURVE",
"74 278 CURVE SMOOTH",
"74 144 OFFCURVE",
"129 -4 OFFCURVE",
"286 -4 CURVE SMOOTH",
"352 -4 OFFCURVE",
"402 24 OFFCURVE",
"433 87 CURVE",
"433 22 LINE SMOOTH",
"433 -75 OFFCURVE",
"395 -143 OFFCURVE",
"297 -143 CURVE SMOOTH",
"244 -143 OFFCURVE",
"184 -123 OFFCURVE",
"135 -99 CURVE",
"135 -188 LINE",
"186 -204 OFFCURVE",
"240 -215 OFFCURVE",
"292 -215 CURVE SMOOTH"
);
},
{
closed = 1;
nodes = (
"218 71 OFFCURVE",
"168 154 OFFCURVE",
"168 278 CURVE SMOOTH",
"168 404 OFFCURVE",
"218 485 OFFCURVE",
"303 485 CURVE SMOOTH",
"388 485 OFFCURVE",
"433 403 OFFCURVE",
"433 278 CURVE SMOOTH",
"433 153 OFFCURVE",
"388 71 OFFCURVE",
"303 71 CURVE SMOOTH"
);
}
);
width = 600;
},
{
layerId = "61F2BD45-B671-4C55-AD7E-9EE71CCEAAE6";
paths = (
{
closed = 1;
nodes = (
"461 -215 OFFCURVE",
"535 -142 OFFCURVE",
"535 33 CURVE SMOOTH",
"535 550 LINE",
"406 550 LINE",
"392 477 LINE",
"364 531 OFFCURVE",
"314 561 OFFCURVE",
"248 561 CURVE SMOOTH",
"99 561 OFFCURVE",
"48 404 OFFCURVE",
"48 280 CURVE SMOOTH",
"48 147 OFFCURVE",
"99 7 OFFCURVE",
"253 7 CURVE SMOOTH",
"318 7 OFFCURVE",
"364 32 OFFCURVE",
"392 84 CURVE",
"392 17 LINE SMOOTH",
"392 -62 OFFCURVE",
"352 -101 OFFCURVE",
"270 -101 CURVE SMOOTH",
"220 -101 OFFCURVE",
"157 -86 OFFCURVE",
"105 -57 CURVE",
"105 -188 LINE",
"164 -206 OFFCURVE",
"223 -215 OFFCURVE",
"285 -215 CURVE SMOOTH"
);
},
{
closed = 1;
nodes = (
"232 120 OFFCURVE",
"191 185 OFFCURVE",
"191 280 CURVE SMOOTH",
"191 375 OFFCURVE",
"232 444 OFFCURVE",
"292 444 CURVE SMOOTH",
"352 444 OFFCURVE",
"392 375 OFFCURVE",
"392 280 CURVE SMOOTH",
"392 185 OFFCURVE",
"352 120 OFFCURVE",
"292 120 CURVE SMOOTH"
);
}
);
width = 600;
}
);
unicode = 0067;
},
{
glyphname = h;
lastChange = "2019-02-22 04:45:59 +0000";
layers = (
{
layerId = "A38A55E9-0FA0-41CB-858E-AFEB657F7EAC";
paths = (
{
closed = 1;
nodes = (
"184 0 LINE",
"184 309 LINE SMOOTH",
"184 396 OFFCURVE",
"214 482 OFFCURVE",
"315 482 CURVE SMOOTH",
"389 482 OFFCURVE",
"422 437 OFFCURVE",
"422 339 CURVE SMOOTH",
"422 0 LINE",
"512 0 LINE",
"512 339 LINE SMOOTH",
"512 455 OFFCURVE",
"480 560 OFFCURVE",
"346 560 CURVE SMOOTH",
"271 560 OFFCURVE",
"217 528 OFFCURVE",
"184 465 CURVE",
"184 760 LINE",
"94 760 LINE",
"94 0 LINE"
);
}
);
width = 600;
},
{
layerId = "61F2BD45-B671-4C55-AD7E-9EE71CCEAAE6";
paths = (
{
closed = 1;
nodes = (
"225 0 LINE",
"225 313 LINE SMOOTH",
"225 394 OFFCURVE",
"257 443 OFFCURVE",
"312 443 CURVE SMOOTH",
"358 443 OFFCURVE",
"380 409 OFFCURVE",
"380 333 CURVE SMOOTH",
"380 0 LINE",
"522 0 LINE",
"522 355 LINE SMOOTH",
"522 489 OFFCURVE",
"468 560 OFFCURVE",
"367 560 CURVE SMOOTH",
"296 560 OFFCURVE",
"246 526 OFFCURVE",
"225 465 CURVE",
"225 760 LINE",
"83 760 LINE",
"83 0 LINE"
);
}
);
width = 600;
}
);
unicode = 0068;
},
{
glyphname = i;
lastChange = "2019-02-22 04:54:45 +0000";
layers = (
{
layerId = "A38A55E9-0FA0-41CB-858E-AFEB657F7EAC";
paths = (
{
closed = 1;
nodes = (
"532 -4 LINE",
"532 72 LINE",
"427 72 LINE SMOOTH",
"376 72 OFFCURVE",
"339 115 OFFCURVE",
"339 194 CURVE SMOOTH",
"339 550 LINE",
"130 550 LINE",
"130 480 LINE",
"249 480 LINE",
"249 194 LINE SMOOTH",
"249 68 OFFCURVE",
"311 -4 OFFCURVE",
"418 -4 CURVE SMOOTH"
);
},
{
closed = 1;
nodes = (
"325 646 LINE SMOOTH",
"334 646 OFFCURVE",
"339 651 OFFCURVE",
"339 661 CURVE SMOOTH",
"339 745 LINE SMOOTH",
"339 755 OFFCURVE",
"334 760 OFFCURVE",
"325 760 CURVE SMOOTH",
"254 760 LINE SMOOTH",
"245 760 OFFCURVE",
"240 755 OFFCURVE",
"240 745 CURVE SMOOTH",
"240 661 LINE SMOOTH",
"240 651 OFFCURVE",
"245 646 OFFCURVE",
"254 646 CURVE SMOOTH"
);
}
);
width = 600;
},
{
layerId = "61F2BD45-B671-4C55-AD7E-9EE71CCEAAE6";
paths = (
{
closed = 1;
nodes = (
"550 -6 LINE",
"550 104 LINE",
"436 104 LINE SMOOTH",
"369 104 OFFCURVE",
"348 148 OFFCURVE",
"348 222 CURVE SMOOTH",
"348 550 LINE",
"89 550 LINE",
"89 440 LINE",
"205 440 LINE",
"205 222 LINE SMOOTH",
"205 61 OFFCURVE",
"245 -6 OFFCURVE",
"395 -6 CURVE SMOOTH"
);
},
{
closed = 1;
nodes = (
"333 612 LINE SMOOTH",
"343 612 OFFCURVE",
"348 617 OFFCURVE",
"348 626 CURVE SMOOTH",
"348 764 LINE SMOOTH",
"348 774 OFFCURVE",
"343 779 OFFCURVE",
"333 779 CURVE SMOOTH",
"219 779 LINE SMOOTH",
"209 779 OFFCURVE",
"205 774 OFFCURVE",
"205 764 CURVE SMOOTH",
"205 626 LINE SMOOTH",
"205 617 OFFCURVE",
"209 612 OFFCURVE",
"219 612 CURVE SMOOTH"
);
}
);
width = 600;
}
);
unicode = 0069;
},
{
glyphname = j;
lastChange = "2019-02-22 04:53:42 +0000";
layers = (
{
layerId = "A38A55E9-0FA0-41CB-858E-AFEB657F7EAC";
paths = (
{
closed = 1;
nodes = (
"240 -208 LINE SMOOTH",
"357 -208 OFFCURVE",
"408 -151 OFFCURVE",
"408 -10 CURVE SMOOTH",
"408 550 LINE",
"164 550 LINE",
"164 480 LINE",
"318 480 LINE",
"318 -10 LINE SMOOTH",
"318 -88 OFFCURVE",
"284 -132 OFFCURVE",
"230 -132 CURVE SMOOTH",
"116 -132 LINE",
"116 -208 LINE"
);
},
{
closed = 1;
nodes = (
"389 646 LINE SMOOTH",
"398 646 OFFCURVE",
"403 651 OFFCURVE",
"403 661 CURVE SMOOTH",
"403 745 LINE SMOOTH",
"403 755 OFFCURVE",
"398 760 OFFCURVE",
"389 760 CURVE SMOOTH",
"318 760 LINE SMOOTH",
"309 760 OFFCURVE",
"304 755 OFFCURVE",
"304 745 CURVE SMOOTH",
"304 661 LINE SMOOTH",
"304 651 OFFCURVE",
"309 646 OFFCURVE",
"318 646 CURVE SMOOTH"
);
}
);
width = 600;
},
{
layerId = "61F2BD45-B671-4C55-AD7E-9EE71CCEAAE6";
paths = (
{
closed = 1;
nodes = (
"237 -207 LINE SMOOTH",
"374 -207 OFFCURVE",
"428 -142 OFFCURVE",
"428 21 CURVE SMOOTH",
"428 550 LINE",
"140 550 LINE",
"140 440 LINE",
"285 440 LINE",
"285 21 LINE SMOOTH",
"285 -63 OFFCURVE",
"260 -97 OFFCURVE",
"197 -97 CURVE SMOOTH",
"83 -97 LINE",
"83 -207 LINE"
);
},
{
closed = 1;
nodes = (
"414 612 LINE SMOOTH",
"423 612 OFFCURVE",
"428 617 OFFCURVE",
"428 626 CURVE SMOOTH",
"428 764 LINE SMOOTH",
"428 774 OFFCURVE",
"423 779 OFFCURVE",
"414 779 CURVE SMOOTH",
"300 779 LINE SMOOTH",
"290 779 OFFCURVE",
"285 774 OFFCURVE",
"285 764 CURVE SMOOTH",
"285 626 LINE SMOOTH",
"285 617 OFFCURVE",
"290 612 OFFCURVE",
"300 612 CURVE SMOOTH"
);
}
);
width = 600;
}
);
unicode = 006A;
},
{
glyphname = k;
lastChange = "2019-02-22 04:59:29 +0000";
layers = (
{
layerId = "A38A55E9-0FA0-41CB-858E-AFEB657F7EAC";
paths = (
{
closed = 1;
nodes = (
"202 0 LINE",
"202 219 LINE",
"269 282 LINE",
"471 0 LINE",
"581 0 LINE",
"332 341 LINE",
"550 550 LINE",
"441 550 LINE",
"202 320 LINE",
"202 760 LINE",
"109 760 LINE",
"109 0 LINE"
);
}
);
width = 600;
},
{
layerId = "61F2BD45-B671-4C55-AD7E-9EE71CCEAAE6";
paths = (
{
closed = 1;
nodes = (
"227 0 LINE",
"227 209 LINE",
"276 256 LINE",
"426 0 LINE",
"584 0 LINE",
"365 343 LINE",
"575 550 LINE",
"402 550 LINE",
"227 361 LINE",
"227 760 LINE",
"84 760 LINE",
"84 0 LINE"
);
}
);
width = 600;
}
);
unicode = 006B;
},
{
glyphname = l;
lastChange = "2019-02-22 05:04:25 +0000";
layers = (
{
layerId = "A38A55E9-0FA0-41CB-858E-AFEB657F7EAC";
paths = (
{
closed = 1;
nodes = (
"515 -4 LINE",
"515 72 LINE",
"406 72 LINE SMOOTH",
"344 72 OFFCURVE",
"322 114 OFFCURVE",
"322 194 CURVE SMOOTH",
"322 760 LINE",
"88 760 LINE",
"88 689 LINE",
"232 689 LINE",
"232 194 LINE SMOOTH",
"232 56 OFFCURVE",
"286 -4 OFFCURVE",
"406 -4 CURVE SMOOTH"
);
}
);
width = 600;
},
{
layerId = "61F2BD45-B671-4C55-AD7E-9EE71CCEAAE6";
paths = (
{
closed = 1;
nodes = (
"539 -4 LINE",
"539 106 LINE",
"425 106 LINE SMOOTH",
"360 106 OFFCURVE",
"337 138 OFFCURVE",
"337 224 CURVE SMOOTH",
"337 760 LINE",
"49 760 LINE",
"49 650 LINE",
"194 650 LINE",
"194 224 LINE SMOOTH",
"194 58 OFFCURVE",
"235 -4 OFFCURVE",
"385 -4 CURVE SMOOTH"
);
}
);
width = 600;
}
);
unicode = 006C;
},
{
glyphname = m;
lastChange = "2019-02-22 05:12:27 +0000";
layers = (
{
layerId = "A38A55E9-0FA0-41CB-858E-AFEB657F7EAC";
paths = (
{
closed = 1;
nodes = (
"134 0 LINE",
"134 313 LINE SMOOTH",
"134 419 OFFCURVE",
"134 485 OFFCURVE",
"198 485 CURVE SMOOTH",
"261 485 OFFCURVE",
"261 419 OFFCURVE",
"261 313 CURVE SMOOTH",
"261 0 LINE",
"343 0 LINE",
"343 313 LINE SMOOTH",
"343 419 OFFCURVE",
"343 485 OFFCURVE",
"410 485 CURVE SMOOTH",
"472 485 OFFCURVE",
"471 419 OFFCURVE",
"471 313 CURVE SMOOTH",
"471 0 LINE",
"553 0 LINE",
"553 317 LINE SMOOTH",
"553 461 OFFCURVE",
"541 560 OFFCURVE",
"434 560 CURVE SMOOTH",
"385 560 OFFCURVE",
"352 539 OFFCURVE",
"329 491 CURVE",
"311 537 OFFCURVE",
"279 560 OFFCURVE",
"232 560 CURVE SMOOTH",
"189 560 OFFCURVE",
"156 540 OFFCURVE",
"134 500 CURVE",
"126 550 LINE",
"52 550 LINE",
"52 0 LINE"
);
}
);
width = 600;
},
{
layerId = "61F2BD45-B671-4C55-AD7E-9EE71CCEAAE6";
paths = (
{
closed = 1;
nodes = (
"156 0 LINE",
"156 351 LINE SMOOTH",
"156 413 OFFCURVE",
"160 453 OFFCURVE",
"200 453 CURVE SMOOTH",
"240 453 OFFCURVE",
"243 413 OFFCURVE",
"243 351 CURVE SMOOTH",
"243 0 LINE",
"359 0 LINE",
"359 351 LINE SMOOTH",
"359 413 OFFCURVE",
"362 453 OFFCURVE",
"402 453 CURVE SMOOTH",
"442 453 OFFCURVE",
"446 413 OFFCURVE",
"446 351 CURVE SMOOTH",
"446 0 LINE",
"563 0 LINE",
"563 308 LINE SMOOTH",
"563 462 OFFCURVE",
"555 560 OFFCURVE",
"440 560 CURVE SMOOTH",
"390 560 OFFCURVE",
"358 539 OFFCURVE",
"336 492 CURVE",
"328 530 OFFCURVE",
"287 560 OFFCURVE",
"241 560 CURVE SMOOTH",
"197 560 OFFCURVE",
"160 534 OFFCURVE",
"143 490 CURVE",
"129 550 LINE",
"39 550 LINE",
"39 0 LINE"
);
}
);
width = 600;
}
);
unicode = 006D;
},
{
glyphname = n;
lastChange = "2019-02-12 05:22:04 +0000";
layers = (
{
layerId = "A38A55E9-0FA0-41CB-858E-AFEB657F7EAC";
paths = (
{
closed = 1;
nodes = (
"184 0 LINE",
"184 310 LINE SMOOTH",
"184 421 OFFCURVE",
"223 483 OFFCURVE",
"308 483 CURVE SMOOTH",
"380 483 OFFCURVE",
"422 439 OFFCURVE",
"422 341 CURVE SMOOTH",
"422 0 LINE",
"512 0 LINE",
"512 341 LINE SMOOTH",
"512 488 OFFCURVE",
"457 562 OFFCURVE",
"345 562 CURVE SMOOTH",
"271 562 OFFCURVE",
"217 529 OFFCURVE",
"184 466 CURVE",
"175 550 LINE",
"94 550 LINE",
"94 0 LINE"
);
}
);
width = 600;
},
{
layerId = "61F2BD45-B671-4C55-AD7E-9EE71CCEAAE6";
paths = (
{
closed = 1;
nodes = (
"225 0 LINE",
"225 313 LINE SMOOTH",
"225 394 OFFCURVE",
"251 444 OFFCURVE",
"306 444 CURVE SMOOTH",
"351 444 OFFCURVE",
"380 414 OFFCURVE",
"380 337 CURVE SMOOTH",
"380 0 LINE",
"522 0 LINE",
"522 355 LINE SMOOTH",
"522 489 OFFCURVE",
"468 560 OFFCURVE",
"367 560 CURVE SMOOTH",
"296 560 OFFCURVE",
"246 526 OFFCURVE",
"225 465 CURVE",
"211 547 LINE",
"83 547 LINE",
"83 0 LINE"
);
}
);
width = 600;
}
);
unicode = 006E;
},
{
glyphname = o;
lastChange = "2019-02-22 05:16:24 +0000";
layers = (
{
layerId = "A38A55E9-0FA0-41CB-858E-AFEB657F7EAC";
paths = (
{
closed = 1;
nodes = (
"149 -14 OFFCURVE",
"66 88 OFFCURVE",
"66 273 CURVE SMOOTH",
"66 459 OFFCURVE",
"149 560 OFFCURVE",
"301 560 CURVE SMOOTH",
"452 560 OFFCURVE",
"534 459 OFFCURVE",
"534 273 CURVE SMOOTH",
"534 88 OFFCURVE",
"452 -14 OFFCURVE",
"301 -14 CURVE SMOOTH"
);
},
{
closed = 1;
nodes = (
"390 62 OFFCURVE",
"439 138 OFFCURVE",
"439 273 CURVE SMOOTH",
"439 409 OFFCURVE",
"390 484 OFFCURVE",
"301 484 CURVE SMOOTH",
"211 484 OFFCURVE",
"161 409 OFFCURVE",
"161 273 CURVE SMOOTH",
"161 138 OFFCURVE",
"211 62 OFFCURVE",
"301 62 CURVE SMOOTH"
);
}
);
width = 600;
},
{
layerId = "61F2BD45-B671-4C55-AD7E-9EE71CCEAAE6";
paths = (
{
closed = 1;
nodes = (
"145 -14 OFFCURVE",
"47 97 OFFCURVE",
"47 274 CURVE SMOOTH",
"47 451 OFFCURVE",
"145 560 OFFCURVE",
"301 560 CURVE SMOOTH",
"457 560 OFFCURVE",
"553 451 OFFCURVE",
"553 274 CURVE SMOOTH",
"553 97 OFFCURVE",
"457 -14 OFFCURVE",
"301 -14 CURVE SMOOTH"
);
},
{
closed = 1;
nodes = (
"368 102 OFFCURVE",
"410 168 OFFCURVE",
"410 274 CURVE SMOOTH",
"410 378 OFFCURVE",
"368 444 OFFCURVE",
"301 444 CURVE SMOOTH",
"232 444 OFFCURVE",
"190 378 OFFCURVE",
"190 274 CURVE SMOOTH",
"190 168 OFFCURVE",
"232 102 OFFCURVE",
"301 102 CURVE SMOOTH"
);
}
);
width = 600;
}
);
unicode = 006F;
},
{
glyphname = p;
lastChange = "2019-02-28 04:27:53 +0000";
layers = (
{
layerId = "A38A55E9-0FA0-41CB-858E-AFEB657F7EAC";
paths = (
{
closed = 1;
nodes = (
"183 -208 LINE",
"183 72 LINE",
"213 18 OFFCURVE",
"264 -11 OFFCURVE",
"330 -11 CURVE SMOOTH",
"461 -11 OFFCURVE",
"541 99 OFFCURVE",
"541 276 CURVE SMOOTH",
"541 453 OFFCURVE",
"461 563 OFFCURVE",
"330 563 CURVE SMOOTH",
"264 563 OFFCURVE",
"213 535 OFFCURVE",
"183 480 CURVE",
"174 550 LINE",
"93 550 LINE",
"93 -208 LINE"
);
},
{
closed = 1;
nodes = (
"234 65 OFFCURVE",
"183 138 OFFCURVE",
"183 276 CURVE SMOOTH",
"183 414 OFFCURVE",
"234 487 OFFCURVE",
"319 487 CURVE SMOOTH",
"404 487 OFFCURVE",
"447 414 OFFCURVE",
"447 276 CURVE SMOOTH",
"447 138 OFFCURVE",
"404 65 OFFCURVE",
"319 65 CURVE SMOOTH"
);
}
);
width = 600;
},
{
layerId = "61F2BD45-B671-4C55-AD7E-9EE71CCEAAE6";
paths = (
{
closed = 1;
nodes = (
"216 -208 LINE",
"216 80 LINE",
"248 20 OFFCURVE",
"296 -11 OFFCURVE",
"362 -11 CURVE SMOOTH",
"484 -11 OFFCURVE",
"558 97 OFFCURVE",
"558 277 CURVE SMOOTH",
"558 457 OFFCURVE",
"484 563 OFFCURVE",
"361 563 CURVE SMOOTH",
"296 563 OFFCURVE",
"248 531 OFFCURVE",
"216 468 CURVE",
"202 550 LINE",
"73 550 LINE",
"73 -208 LINE"
);
},
{
closed = 1;
nodes = (
"257 108 OFFCURVE",
"216 177 OFFCURVE",
"216 277 CURVE SMOOTH",
"216 377 OFFCURVE",
"257 446 OFFCURVE",
"317 446 CURVE SMOOTH",
"377 446 OFFCURVE",
"415 377 OFFCURVE",
"415 277 CURVE SMOOTH",
"415 177 OFFCURVE",
"377 108 OFFCURVE",
"317 108 CURVE SMOOTH"
);
}
);
width = 600;
}
);
unicode = 0070;
},
{
glyphname = q;
lastChange = "2019-02-28 04:37:35 +0000";
layers = (
{
layerId = "A38A55E9-0FA0-41CB-858E-AFEB657F7EAC";
paths = (
{
closed = 1;
nodes = (
"515 -210 LINE",
"515 550 LINE",
"434 550 LINE",
"425 480 LINE",
"395 535 OFFCURVE",
"345 563 OFFCURVE",
"279 563 CURVE SMOOTH",
"148 563 OFFCURVE",
"67 452 OFFCURVE",
"67 272 CURVE SMOOTH",
"67 121 OFFCURVE",
"127 -11 OFFCURVE",
"276 -11 CURVE SMOOTH",
"345 -11 OFFCURVE",
"395 18 OFFCURVE",
"425 73 CURVE",
"425 -210 LINE"
);
},
{
closed = 1;
nodes = (
"209 65 OFFCURVE",
"162 141 OFFCURVE",
"162 276 CURVE SMOOTH",
"162 411 OFFCURVE",
"209 487 OFFCURVE",
"294 487 CURVE SMOOTH",
"378 487 OFFCURVE",
"425 411 OFFCURVE",
"425 276 CURVE SMOOTH",
"425 141 OFFCURVE",
"377 65 OFFCURVE",
"294 65 CURVE SMOOTH"
);
}
);
width = 600;
},
{
layerId = "61F2BD45-B671-4C55-AD7E-9EE71CCEAAE6";
paths = (
{
closed = 1;
nodes = (
"529 -208 LINE",
"529 550 LINE",
"400 550 LINE",
"386 468 LINE",
"354 531 OFFCURVE",
"306 563 OFFCURVE",
"241 563 CURVE SMOOTH",
"119 563 OFFCURVE",
"44 456 OFFCURVE",
"44 276 CURVE SMOOTH",
"44 96 OFFCURVE",
"119 -11 OFFCURVE",
"241 -11 CURVE SMOOTH",
"306 -11 OFFCURVE",
"354 19 OFFCURVE",
"386 80 CURVE",
"386 -208 LINE"
);
},
{
closed = 1;
nodes = (
"225 108 OFFCURVE",
"186 173 OFFCURVE",
"186 277 CURVE SMOOTH",
"186 379 OFFCURVE",
"225 446 OFFCURVE",
"286 446 CURVE SMOOTH",
"347 446 OFFCURVE",
"386 379 OFFCURVE",
"386 277 CURVE SMOOTH",
"386 173 OFFCURVE",
"347 108 OFFCURVE",
"286 108 CURVE SMOOTH"
);
}
);
width = 600;
}
);
unicode = 0071;
},
{
glyphname = r;
lastChange = "2019-02-28 04:41:19 +0000";
layers = (
{
layerId = "A38A55E9-0FA0-41CB-858E-AFEB657F7EAC";
paths = (
{
closed = 1;
nodes = (
"237 0 LINE",
"237 272 LINE SMOOTH",
"237 407 OFFCURVE",
"298 480 OFFCURVE",
"409 480 CURVE SMOOTH",
"458 480 OFFCURVE",
"500 466 OFFCURVE",
"534 437 CURVE",
"534 529 LINE",
"500 552 OFFCURVE",
"459 563 OFFCURVE",
"416 563 CURVE SMOOTH",
"331 563 OFFCURVE",
"267 520 OFFCURVE",
"237 443 CURVE",
"228 550 LINE",
"146 550 LINE",
"146 0 LINE"
);
}
);
width = 600;
},
{
layerId = "61F2BD45-B671-4C55-AD7E-9EE71CCEAAE6";
paths = (
{
closed = 1;
nodes = (
"260 0 LINE",
"260 255 LINE SMOOTH",
"260 379 OFFCURVE",
"294 442 OFFCURVE",
"413 442 CURVE SMOOTH",
"471 442 OFFCURVE",
"504 427 OFFCURVE",
"537 399 CURVE",
"537 535 LINE",
"504 553 OFFCURVE",
"466 563 OFFCURVE",
"425 563 CURVE SMOOTH",
"348 563 OFFCURVE",
"288 527 OFFCURVE",
"260 465 CURVE",
"246 550 LINE",
"117 550 LINE",
"117 0 LINE"
);
}
);
width = 600;
}
);
unicode = 0072;
},
{
glyphname = s;
lastChange = "2019-02-28 05:02:15 +0000";
layers = (
{
layerId = "A38A55E9-0FA0-41CB-858E-AFEB657F7EAC";
paths = (
{
closed = 1;
nodes = (
"421 -14 OFFCURVE",
"503 55 OFFCURVE",
"503 155 CURVE SMOOTH",
"503 255 OFFCURVE",
"411 295 OFFCURVE",
"331 315 CURVE SMOOTH",
"251 335 OFFCURVE",
"197 360 OFFCURVE",
"197 400 CURVE SMOOTH",
"197 450 OFFCURVE",
"239 485 OFFCURVE",
"314 485 CURVE SMOOTH",
"369 485 OFFCURVE",
"423 470 OFFCURVE",
"475 440 CURVE",
"475 528 LINE",
"423 549 OFFCURVE",
"369 560 OFFCURVE",
"314 560 CURVE SMOOTH",
"180 560 OFFCURVE",
"106 500 OFFCURVE",
"106 400 CURVE SMOOTH",
"106 300 OFFCURVE",
"212 259 OFFCURVE",
"292 239 CURVE SMOOTH",
"372 219 OFFCURVE",
"412 195 OFFCURVE",
"412 155 CURVE SMOOTH",
"412 105 OFFCURVE",
"363 61 OFFCURVE",
"288 61 CURVE SMOOTH",
"233 61 OFFCURVE",
"175 78 OFFCURVE",
"104 113 CURVE",
"104 20 LINE",
"175 -3 OFFCURVE",
"233 -14 OFFCURVE",
"288 -14 CURVE SMOOTH"
);
}
);
width = 600;
},
{
layerId = "61F2BD45-B671-4C55-AD7E-9EE71CCEAAE6";
paths = (
{
closed = 1;
nodes = (
"446 -14 OFFCURVE",
"521 44 OFFCURVE",
"521 159 CURVE SMOOTH",
"521 249 OFFCURVE",
"475 299 OFFCURVE",
"370 326 CURVE SMOOTH",
"257 355 OFFCURVE",
"219 369 OFFCURVE",
"219 404 CURVE SMOOTH",
"219 439 OFFCURVE",
"256 456 OFFCURVE",
"321 456 CURVE SMOOTH",
"382 456 OFFCURVE",
"426 441 OFFCURVE",
"484 405 CURVE",
"484 530 LINE",
"426 551 OFFCURVE",
"372 560 OFFCURVE",
"312 560 CURVE SMOOTH",
"164 560 OFFCURVE",
"84 509 OFFCURVE",
"84 394 CURVE SMOOTH",
"84 304 OFFCURVE",
"134 254 OFFCURVE",
"241 229 CURVE SMOOTH",
"353 203 OFFCURVE",
"386 184 OFFCURVE",
"386 149 CURVE SMOOTH",
"386 114 OFFCURVE",
"351 90 OFFCURVE",
"286 90 CURVE SMOOTH",
"228 90 OFFCURVE",
"163 109 OFFCURVE",
"93 145 CURVE",
"93 20 LINE",
"163 -3 OFFCURVE",
"237 -14 OFFCURVE",
"297 -14 CURVE SMOOTH"
);
}
);
width = 600;
}
);
unicode = 0073;
},
{
glyphname = t;
lastChange = "2019-02-28 05:08:39 +0000";
layers = (
{
layerId = "A38A55E9-0FA0-41CB-858E-AFEB657F7EAC";
paths = (
{
closed = 1;
nodes = (
"503 0 LINE",
"503 76 LINE",
"398 76 LINE SMOOTH",
"327 76 OFFCURVE",
"299 105 OFFCURVE",
"299 180 CURVE SMOOTH",
"299 480 LINE",
"503 480 LINE",
"503 550 LINE",
"299 550 LINE",
"299 735 LINE",
"209 696 LINE",
"209 550 LINE",
"63 550 LINE",
"63 480 LINE",
"209 480 LINE",
"209 180 LINE SMOOTH",
"209 45 OFFCURVE",
"258 0 OFFCURVE",
"398 0 CURVE SMOOTH"
);
}
);
width = 600;
},
{
layerId = "61F2BD45-B671-4C55-AD7E-9EE71CCEAAE6";
paths = (
{
closed = 1;
nodes = (
"523 -2 LINE",
"523 108 LINE",
"408 108 LINE SMOOTH",
"358 108 OFFCURVE",
"336 130 OFFCURVE",
"336 180 CURVE SMOOTH",
"336 437 LINE",
"523 437 LINE",
"523 547 LINE",
"336 547 LINE",
"336 735 LINE",
"193 671 LINE",
"193 547 LINE",
"53 547 LINE",
"53 437 LINE",
"193 437 LINE",
"193 180 LINE SMOOTH",
"193 40 OFFCURVE",
"268 -2 OFFCURVE",
"408 -2 CURVE SMOOTH"
);
}
);
width = 600;
}
);
unicode = 0074;
},
{
glyphname = u;
lastChange = "2019-02-28 05:15:21 +0000";
layers = (
{
layerId = "A38A55E9-0FA0-41CB-858E-AFEB657F7EAC";
paths = (
{
closed = 1;
nodes = (
"334 -14 OFFCURVE",
"390 19 OFFCURVE",
"422 82 CURVE",
"431 0 LINE",
"512 0 LINE",
"512 550 LINE",
"422 550 LINE",
"422 237 LINE SMOOTH",
"422 127 OFFCURVE",
"374 64 OFFCURVE",
"291 64 CURVE SMOOTH",
"219 64 OFFCURVE",
"184 111 OFFCURVE",
"184 207 CURVE SMOOTH",
"184 550 LINE",
"94 550 LINE",
"94 207 LINE SMOOTH",
"94 61 OFFCURVE",
"150 -14 OFFCURVE",
"261 -14 CURVE SMOOTH"
);
}
);
width = 600;
},
{
layerId = "61F2BD45-B671-4C55-AD7E-9EE71CCEAAE6";
paths = (
{
closed = 1;
nodes = (
"303 -14 OFFCURVE",
"353 20 OFFCURVE",
"374 81 CURVE",
"388 0 LINE",
"517 0 LINE",
"517 550 LINE",
"374 550 LINE",
"374 233 LINE SMOOTH",
"374 151 OFFCURVE",
"342 103 OFFCURVE",
"288 103 CURVE SMOOTH",
"242 103 OFFCURVE",
"220 138 OFFCURVE",
"220 213 CURVE SMOOTH",
"220 550 LINE",
"77 550 LINE",
"77 191 LINE SMOOTH",
"77 58 OFFCURVE",
"132 -14 OFFCURVE",
"233 -14 CURVE SMOOTH"
);
}
);
width = 600;
}
);
unicode = 0075;
},
{
glyphname = v;
lastChange = "2019-02-28 05:18:15 +0000";
layers = (
{
layerId = "A38A55E9-0FA0-41CB-858E-AFEB657F7EAC";
paths = (
{
closed = 1;
nodes = (
"358 0 LINE",
"552 550 LINE",
"459 550 LINE",
"300 88 LINE",
"141 550 LINE",
"48 550 LINE",
"242 0 LINE"
);
}
);
width = 600;
},
{
layerId = "61F2BD45-B671-4C55-AD7E-9EE71CCEAAE6";
paths = (
{
closed = 1;
nodes = (
"388 0 LINE",
"562 550 LINE",
"417 550 LINE",
"300 120 LINE",
"183 550 LINE",
"38 550 LINE",
"212 0 LINE"
);
}
);
width = 600;
}
);
unicode = 0076;
},
{
glyphname = w;
lastChange = "2019-02-28 05:21:30 +0000";
layers = (
{
layerId = "A38A55E9-0FA0-41CB-858E-AFEB657F7EAC";
paths = (
{
closed = 1;
nodes = (
"214 0 LINE",
"301 300 LINE",
"388 0 LINE",
"474 0 LINE",
"602 550 LINE",
"513 550 LINE",
"418 105 LINE",
"339 387 LINE",
"263 387 LINE",
"184 105 LINE",
"89 550 LINE",
"0 550 LINE",
"128 0 LINE"
);
}
);
width = 600;
},
{
layerId = "61F2BD45-B671-4C55-AD7E-9EE71CCEAAE6";
paths = (
{
closed = 1;
nodes = (
"235 0 LINE",
"301 284 LINE",
"367 0 LINE",
"503 0 LINE",
"602 550 LINE",
"483 550 LINE",
"417 128 LINE",
"359 404 LINE",
"243 404 LINE",
"185 128 LINE",
"119 550 LINE",
"0 550 LINE",
"99 0 LINE"
);
}
);
width = 600;
}
);
unicode = 0077;
},
{
glyphname = x;
lastChange = "2019-02-28 23:18:07 +0000";
layers = (
{
layerId = "A38A55E9-0FA0-41CB-858E-AFEB657F7EAC";
paths = (
{
closed = 1;
nodes = (
"140 0 LINE",
"300 222 LINE",
"460 0 LINE",
"564 0 LINE",
"349 288 LINE",
"545 550 LINE",
"444 550 LINE",
"300 352 LINE",
"155 550 LINE",
"55 550 LINE",
"251 288 LINE",
"36 0 LINE"
);
}
);
width = 600;
},
{
layerId = "61F2BD45-B671-4C55-AD7E-9EE71CCEAAE6";
paths = (
{
closed = 1;
nodes = (
"194 0 LINE",
"301 187 LINE",
"408 0 LINE",
"575 0 LINE",
"375 288 LINE",
"559 550 LINE",
"392 550 LINE",
"301 387 LINE",
"210 550 LINE",
"43 550 LINE",
"229 288 LINE",
"27 0 LINE"
);
}
);
width = 600;
}
);
unicode = 0078;
},
{
glyphname = y;
lastChange = "2019-02-28 23:34:30 +0000";
layers = (
{
layerId = "A38A55E9-0FA0-41CB-858E-AFEB657F7EAC";
paths = (
{
closed = 1;
nodes = (
"170 -208 LINE SMOOTH",
"231 -208 OFFCURVE",
"273 -177 OFFCURVE",
"296 -129 CURVE",
"562 550 LINE",
"467 550 LINE",
"307 119 LINE",
"145 550 LINE",
"50 550 LINE",
"261 9 LINE",
"216 -114 OFFCURVE",
"210 -128 OFFCURVE",
"89 -128 CURVE",
"89 -208 LINE"
);
}
);
width = 600;
},
{
layerId = "61F2BD45-B671-4C55-AD7E-9EE71CCEAAE6";
paths = (
{
closed = 1;
nodes = (
"184 -207 LINE SMOOTH",
"291 -207 OFFCURVE",
"320 -142 OFFCURVE",
"351 -59 CURVE SMOOTH",
"578 550 LINE",
"428 550 LINE",
"308 192 LINE",
"183 550 LINE",
"33 550 LINE",
"241 15 LINE",
"217 -87 OFFCURVE",
"195 -88 OFFCURVE",
"66 -88 CURVE",
"66 -207 LINE"
);
}
);
width = 600;
}
);
unicode = 0079;
},
{
glyphname = z;
lastChange = "2019-02-28 23:36:01 +0000";
layers = (
{
layerId = "A38A55E9-0FA0-41CB-858E-AFEB657F7EAC";
paths = (
{
closed = 1;
nodes = (
"507 0 LINE",
"507 73 LINE",
"193 73 LINE",
"507 468 LINE",
"507 550 LINE",
"110 550 LINE",
"110 478 LINE",
"412 478 LINE",
"98 83 LINE",
"98 0 LINE"
);
}
);
width = 600;
},
{
layerId = "61F2BD45-B671-4C55-AD7E-9EE71CCEAAE6";
paths = (
{
closed = 1;
nodes = (
"527 0 LINE",
"527 107 LINE",
"239 107 LINE",
"527 438 LINE",
"527 550 LINE",
"90 550 LINE",
"90 443 LINE",
"366 443 LINE",
"78 112 LINE",
"78 0 LINE"
);
}
);
width = 600;
}
);
unicode = 007A;
},
{
glyphname = zero;
lastChange = "2019-03-01 01:50:59 +0000";
layers = (
{
layerId = "A38A55E9-0FA0-41CB-858E-AFEB657F7EAC";
paths = (
{
closed = 1;
nodes = (
"120 -14 OFFCURVE",
"64 154 OFFCURVE",
"64 364 CURVE SMOOTH {name = sh01;}",
"64 574 OFFCURVE",
"120 742 OFFCURVE",
"300 742 CURVE SMOOTH {name = at01;}",
"480 742 OFFCURVE",
"536 574 OFFCURVE",
"536 364 CURVE SMOOTH {name = sh04;}",
"536 154 OFFCURVE",
"480 -14 OFFCURVE",
"300 -14 CURVE SMOOTH {name = hr00;}"
);
},
{
closed = 1;
nodes = (
"415 64 OFFCURVE",
"437 219 OFFCURVE",
"437 364 CURVE SMOOTH {name = sh03;}",
"437 509 OFFCURVE",
"415 664 OFFCURVE",
"300 664 CURVE SMOOTH {name = sv01;}",
"185 664 OFFCURVE",
"163 509 OFFCURVE",
"163 364 CURVE SMOOTH {name = sh05;}",
"163 219 OFFCURVE",
"185 64 OFFCURVE",
"300 64 CURVE SMOOTH {name = dv01;}"
);
},
{
closed = 1;
nodes = (
"255 174 OFFCURVE",
"249 284 OFFCURVE",
"249 364 CURVE SMOOTH {name = sh02;}",
"249 444 OFFCURVE",
"255 554 OFFCURVE",
"300 554 CURVE SMOOTH",
"345 554 OFFCURVE",
"351 444 OFFCURVE",
"351 364 CURVE SMOOTH {name = sh06;}",
"351 284 OFFCURVE",
"345 174 OFFCURVE",
"300 174 CURVE SMOOTH"
);
}
);
width = 600;
},
{
layerId = "61F2BD45-B671-4C55-AD7E-9EE71CCEAAE6";
paths = (
{
closed = 1;
nodes = (
"115 -14 OFFCURVE",
"59 154 OFFCURVE",
"59 364 CURVE SMOOTH {name = sh01;}",
"59 574 OFFCURVE",
"115 742 OFFCURVE",
"300 742 CURVE SMOOTH {name = at01;}",
"485 742 OFFCURVE",
"541 574 OFFCURVE",
"541 364 CURVE SMOOTH {name = sh04;}",
"541 154 OFFCURVE",
"485 -14 OFFCURVE",
"300 -14 CURVE SMOOTH {name = hr00;}"
);
},
{
closed = 1;
nodes = (
"385 108 OFFCURVE",
"396 234 OFFCURVE",
"396 364 CURVE SMOOTH {name = sh03;}",
"396 489 OFFCURVE",
"385 620 OFFCURVE",
"300 620 CURVE SMOOTH {name = sv01;}",
"215 620 OFFCURVE",
"204 494 OFFCURVE",
"204 364 CURVE SMOOTH {name = sh05;}",
"204 239 OFFCURVE",
"215 108 OFFCURVE",
"300 108 CURVE SMOOTH {name = dv01;}"
);
},
{
closed = 1;
nodes = (
"265 304 OFFCURVE",
"240 329 OFFCURVE",
"240 364 CURVE SMOOTH {name = sh02;}",
"240 399 OFFCURVE",
"265 424 OFFCURVE",
"300 424 CURVE SMOOTH",
"335 424 OFFCURVE",
"360 399 OFFCURVE",
"360 364 CURVE SMOOTH {name = sh08;}",
"360 329 OFFCURVE",
"335 304 OFFCURVE",
"300 304 CURVE SMOOTH"
);
}
);
width = 600;
}
);
unicode = 0030;
},
{
glyphname = one;
lastChange = "2019-03-01 01:53:30 +0000";
layers = (
{
layerId = "A38A55E9-0FA0-41CB-858E-AFEB657F7EAC";
paths = (
{
closed = 1;
nodes = (
"533 0 LINE {name = ab01;}",
"533 83 LINE {name = sv01;}",
"382 83 LINE {name = dh02;}",
"382 730 LINE",
"283 730 LINE {name = at01;}",
"114 540 LINE",
"168 475 LINE",
"284 607 LINE",
"284 83 LINE {name = dh01;}",
"131 83 LINE {name = hr00;}",
"131 0 LINE"
);
}
);
width = 600;
},
{
layerId = "61F2BD45-B671-4C55-AD7E-9EE71CCEAAE6";
paths = (
{
closed = 1;
nodes = (
"553 0 LINE {name = ab01;}",
"553 127 LINE {name = sv01;}",
"392 127 LINE {name = dh02;}",
"392 730 LINE",
"253 730 LINE {name = at01;}",
"74 534 LINE",
"143 463 LINE",
"252 582 LINE",
"252 127 LINE {name = dh01;}",
"91 127 LINE {name = hr00;}",
"91 0 LINE"
);
}
);
width = 600;
}
);
unicode = 0031;
},
{
glyphname = two;
lastChange = "2019-03-01 02:14:26 +0000";
layers = (
{
layerId = "A38A55E9-0FA0-41CB-858E-AFEB657F7EAC";
paths = (
{
closed = 1;
nodes = (
"517 0 LINE {name = ab01;}",
"517 83 LINE {name = dh02;}",
"179 83 LINE {name = sv02;}",
"419 291 OFFCURVE",
"512 410 OFFCURVE",
"512 545 CURVE SMOOTH {name = sh01;}",
"512 685 OFFCURVE",
"413 742 OFFCURVE",
"275 742 CURVE SMOOTH {name = at01;}",
"194 742 OFFCURVE",
"140 722 OFFCURVE",
"80 694 CURVE",
"80 594 LINE {name = iv01;}",
"144 632 OFFCURVE",
"212 660 OFFCURVE",
"278 660 CURVE SMOOTH",
"346 660 OFFCURVE",
"406 630 OFFCURVE",
"406 545 CURVE SMOOTH",
"406 414 OFFCURVE",
"263 272 OFFCURVE",
"74 83 CURVE",
"74 0 LINE"
);
}
);
width = 600;
},
{
layerId = "61F2BD45-B671-4C55-AD7E-9EE71CCEAAE6";
paths = (
{
closed = 1;
nodes = (
"519 0 LINE {name = ab01;}",
"519 127 LINE {name = dh02;}",
"207 127 LINE {name = sv02;}",
"495 396 OFFCURVE",
"518 440 OFFCURVE",
"518 539 CURVE SMOOTH {name = sh01;}",
"518 658 OFFCURVE",
"411 742 OFFCURVE",
"272 742 CURVE SMOOTH {name = at01;}",
"204 742 OFFCURVE",
"136 726 OFFCURVE",
"72 703 CURVE",
"72 569 LINE {name = iv01;}",
"131 603 OFFCURVE",
"204 629 OFFCURVE",
"259 629 CURVE SMOOTH {name = sv01;}",
"328 629 OFFCURVE",
"372 586 OFFCURVE",
"372 528 CURVE SMOOTH {name = dh01;}",
"372 457 OFFCURVE",
"306 388 OFFCURVE",
"56 127 CURVE {name = hr00;}",
"56 0 LINE"
);
}
);
width = 600;
}
);
unicode = 0032;
},
